<?xml version="1.0" standalone="no"?>
<svg xmlns="http://www.w3.org/2000/svg" viewBox="0 0 92.49600000000001 18.791999999999998" width="92.49600000000001" height="18.791999999999998"><path fill="#ff2222"  fill-rule="nonzero" d="M9.67 14.11L12.55 1.75L18.96 1.75L18.96 2.21L17.64 2.21L17.64 18.10L18.96 18.10L18.96 18.55L11.64 18.55L11.64 18.10L12.96 18.10L12.96 3.10L12.86 3.10L9.26 18.55L6.26 18.55L2.04 3.02L1.94 3.02L1.94 18.10L3.26 18.10L3.26 18.55L0 18.55L0 18.10L1.32 18.10L1.32 2.21L0 2.21L0 1.75L6.48 1.75L9.67 14.11ZM25.56 12.91L25.56 12.91L26.26 12.91L26.26 11.06Q26.26 8.78 26.00 8.00Q25.75 7.22 25.03 7.22L25.03 7.22Q24.60 7.22 24.25 7.45Q23.90 7.68 23.90 8.08Q23.90 8.47 24.05 8.88L24.05 8.88L24.65 8.88Q24.84 9.38 24.84 10.09Q24.84 10.80 24.24 11.32Q23.64 11.83 22.73 11.83L22.73 11.83Q20.66 11.83 20.66 9.84L20.66 9.84Q20.66 6.89 25.68 6.89L25.68 6.89Q28.54 6.89 29.63 7.86Q30.72 8.83 30.72 11.42L30.72 11.42L30.72 16.30Q30.72 17.54 31.42 17.54L31.42 17.54Q32.23 17.54 32.38 15.07L32.38 15.07L32.74 15.10Q32.64 17.21 31.94 18Q31.25 18.79 29.66 18.79L29.66 18.79Q26.78 18.79 26.35 17.02L26.35 17.02Q26.04 17.93 25.42 18.36Q24.79 18.79 23.59 18.79L23.59 18.79Q20.04 18.79 20.04 15.89L20.04 15.89Q20.04 14.18 21.40 13.55Q22.75 12.91 25.56 12.91ZM24.60 15.86Q24.60 17.11 24.73 17.47Q24.86 17.83 25.24 17.83Q25.61 17.83 25.93 17.22Q26.26 16.61 26.26 15.53L26.26 15.53L26.26 13.30L26.09 13.30Q24.60 13.30 24.60 15.48L24.60 15.48L24.60 15.86ZM40.99 7.80L40.99 7.80Q40.10 7.80 39.43 8.95Q38.76 10.10 38.76 11.69L38.76 11.69L38.76 18.12L40.46 18.12L40.46 18.55L32.98 18.55L32.98 18.12L34.30 18.12L34.30 7.56L32.98 7.56L32.98 7.13L38.76 7.13L38.76 9.43Q39.07 8.21 39.96 7.55Q40.85 6.89 41.98 6.89Q43.10 6.89 43.81 7.52Q44.52 8.16 44.52 9.32Q44.52 10.49 43.99 11.11Q43.46 11.74 42.37 11.74Q41.28 11.74 40.76 11.02Q40.25 10.30 40.63 9.02L40.63 9.02L41.50 9.02Q42.10 7.80 40.99 7.80ZM46.06 15.12L46.06 15.12L46.06 7.56L44.74 7.56L44.74 7.13L46.06 7.13L46.06 4.03L50.52 2.93L50.52 7.13L53.64 7.13L53.64 7.56L50.52 7.56L50.52 15.65Q50.52 16.78 50.75 17.30Q50.98 17.83 51.70 17.83Q52.42 17.83 52.96 17.11Q53.50 16.39 53.66 15.14L53.66 15.14L54.07 15.19Q53.88 16.85 53.02 17.82Q52.15 18.79 50.16 18.79Q48.17 18.79 47.11 18Q46.06 17.21 46.06 15.12ZM61.58 0.41L61.58 0.41Q60.67 0.41 60.38 1.09Q60.10 1.78 60.10 3.29L60.10 3.29L60.10 7.13L63.26 7.13L63.26 7.56L60.10 7.56L60.10 18.12L63.02 18.12L63.02 18.55L54.31 18.55L54.31 18.12L55.63 18.12L55.63 7.56L54.24 7.56L54.24 7.13L55.63 7.13L55.63 7.03Q55.63 3.58 56.95 1.79Q58.27 0 61.37 0L61.37 0Q63.41 0 64.30 0.80Q65.18 1.61 65.18 2.66Q65.18 3.72 64.63 4.25Q64.08 4.78 63.17 4.78Q62.26 4.78 61.76 4.31Q61.27 3.84 61.27 3.23Q61.27 2.62 61.42 2.04L61.42 2.04L62.33 2.04Q62.81 0.41 61.58 0.41ZM63.41 0.98L63.41 0.55L69.29 0.55L69.29 18.12L70.63 18.12L70.63 18.55L63.50 18.55L63.50 18.12L64.82 18.12L64.82 0.98L63.41 0.98ZM74.62 5.47Q73.34 5.47 72.80 4.82Q72.26 4.18 72.26 3.22Q72.26 2.26 72.85 1.63Q73.44 1.01 74.64 1.01Q75.84 1.01 76.46 1.57Q77.09 2.14 77.09 3.18Q77.09 4.22 76.49 4.85Q75.89 5.47 74.62 5.47ZM70.99 7.56L70.99 7.13L76.87 7.13L76.87 18.12L78.22 18.12L78.22 18.55L71.09 18.55L71.09 18.12L72.41 18.12L72.41 7.56L70.99 7.56ZM84.65 7.56L87.02 11.47L89.86 7.56L88.13 7.56L88.13 7.13L91.70 7.13L91.70 7.56L90.46 7.56L87.34 11.98L91.25 18.12L92.50 18.12L92.50 18.55L84.48 18.55L84.48 18.12L86.18 18.12L83.54 13.80L80.81 18.12L82.39 18.12L82.39 18.55L78.62 18.55L78.62 18.12L80.21 18.12L83.26 13.32L79.61 7.56L78.22 7.56L78.22 7.13L86.33 7.13L86.33 7.56L84.65 7.56Z"></path></svg>